# xmcd
#
# Track frame offsets: 
# 150
# 21490
# 41567
# 61617
# 81202
# 96477
# 117372
# 134130
# 151660
# 166805
# 187202
# 208192
#
# Disc length: 3094 seconds
# Submitted via: tkcNetwork 1.0
# Revision: 0
# Processed by: cddbd v1.5.2PL0 Copyright (c) Steve Scherf et al.
#
DISCID=a90c140c
DTITLE=Bløf - Blauwe Ruis
DYEAR=2002
DGENRE=Pop
TTITLE0=Weggaan
TTITLE1=Blauwe Ruis
TTITLE2=Meer Van Jou
TTITLE3=Dichterbij Dan Ooit
TTITLE4=Vrij
TTITLE5=Mooie Dag
TTITLE6=Diamanten
TTITLE7=Nieuwe Maan
TTITLE8=Vraag Me Niet
TTITLE9=Luchtbel
TTITLE10=Terug
TTITLE11=Vrienden
EXTD=
EXTT0=
EXTT1=
EXTT2=
EXTT3=
EXTT4=
EXTT5=
EXTT6=
EXTT7=
EXTT8=
EXTT9=
EXTT10=
EXTT11=
PLAYORDER=
